<svg height="512pt" viewBox="0 0 512 512" width="512pt" xmlns="http://www.w3.org/2000/svg"><path d="m256 0c-141.160156 0-256 114.839844-256 256s114.839844 256 256 256 256-114.839844 256-256-114.839844-256-256-256zm0 303.128906c-25.988281 0-47.128906-21.140625-47.128906-47.128906s21.140625-47.128906 47.128906-47.128906 47.128906 21.140625 47.128906 47.128906-21.140625 47.128906-47.128906 47.128906zm0 0" fill="#cde3ff"/><path d="m256 0v208.871094c25.988281 0 47.128906 21.140625 47.128906 47.128906s-21.140625 47.128906-47.128906 47.128906v208.871094c141.160156 0 256-114.839844 256-256s-114.839844-256-256-256zm0 0" fill="#acd1ff"/><path d="m367.132812 470.375-74.398437-123.992188c-4.257813-7.101562-1.960937-16.304687 5.128906-20.570312 11.414063-6.871094 21.078125-16.535156 27.945313-27.949219 4.269531-7.089843 13.472656-9.386719 20.570312-5.128906l123.996094 74.398437c7.109375 4.265626 9.40625 13.5 5.132812 20.597657-21.578124 35.847656-51.933593 66.199219-87.777343 87.777343-7.15625 4.304688-16.359375 1.929688-20.597657-5.132812zm0 0" fill="#cde3ff"/><path d="m165.621094 219.265625-123.996094-74.398437c-7.109375-4.265626-9.40625-13.5-5.132812-20.597657 21.578124-35.847656 51.929687-66.199219 87.777343-87.777343 7.105469-4.277344 16.335938-1.972657 20.597657 5.132812l74.398437 123.992188c4.257813 7.101562 1.960937 16.304687-5.128906 20.570312-11.414063 6.871094-21.078125 16.535156-27.945313 27.949219-3.617187 6.007812-12.496094 9.976562-20.570312 5.128906zm0 0" fill="#edf6ff"/><path d="m256 174.601562c-44.878906 0-81.398438 36.519532-81.398438 81.398438s36.519532 81.398438 81.398438 81.398438 81.398438-36.519532 81.398438-81.398438-36.519532-81.398438-81.398438-81.398438zm0 128.527344c-25.988281 0-47.128906-21.140625-47.128906-47.128906s21.140625-47.128906 47.128906-47.128906 47.128906 21.140625 47.128906 47.128906-21.140625 47.128906-47.128906 47.128906zm0 0" fill="#00b4ff"/><path d="m256 174.601562v34.269532c25.988281 0 47.128906 21.140625 47.128906 47.128906s-21.140625 47.128906-47.128906 47.128906v34.269532c44.878906 0 81.398438-36.519532 81.398438-81.398438s-36.519532-81.398438-81.398438-81.398438zm0 0" fill="#0064ff"/></svg>